<svg width="150" height="28" viewBox="0 0 150 28" fill="none" xmlns="http://www.w3.org/2000/svg">
<path d="M37.7695 13.9433C37.7695 11.5582 38.4539 9.75808 39.8684 8.58801C41.2373 7.37294 42.88 6.7879 44.7508 6.7879C46.6216 6.7879 48.2187 7.37294 49.5876 8.58801C50.9565 9.80308 51.6409 11.5582 51.6409 13.9883C51.6409 16.3735 50.9565 18.1736 49.5876 19.3436C48.2187 20.5587 46.576 21.1438 44.7508 21.1438C42.88 21.1438 41.283 20.5587 39.8684 19.3436C38.4539 18.1286 37.7695 16.3285 37.7695 13.9433ZM40.781 13.9433C40.781 15.6084 41.1004 16.7785 41.6936 17.5435C42.3324 18.3086 43.0169 18.8036 43.747 18.9836C43.9295 19.0286 44.0664 19.0736 44.2489 19.0736C44.3858 19.0736 44.5683 19.1186 44.7052 19.1186C44.8877 19.1186 45.0246 19.1186 45.2071 19.0736C45.3896 19.0736 45.5265 19.0286 45.709 18.9836C46.4391 18.8036 47.1236 18.3086 47.7167 17.5435C48.3099 16.7785 48.6293 15.5634 48.6293 13.9883C48.6293 12.3682 48.3099 11.1982 47.7167 10.4331C47.1236 9.66807 46.4391 9.17304 45.709 8.99303C45.5265 8.94803 45.344 8.90303 45.2071 8.90303C45.0246 8.90303 44.8877 8.85803 44.7052 8.85803C44.5227 8.85803 44.3858 8.85803 44.2489 8.90303C44.112 8.90303 43.9295 8.94803 43.747 8.99303C43.0169 9.17304 42.3324 9.66807 41.6936 10.4331C41.1004 11.1082 40.781 12.3232 40.781 13.9433Z" fill="white"/>
<path d="M53.1467 6.92292H56.8883L61.8163 15.7434L62.5464 17.6786H62.592L62.5464 15.1584V6.92292H65.4211V20.9638H61.6794L56.7514 11.7832L56.0213 10.2081H55.9757L56.0213 12.6833V20.9638H53.1467V6.92292Z" fill="white"/>
<path d="M68.387 6.92292H71.2616V18.5786H76.9197V20.9638H68.387V6.92292Z" fill="white"/>
<path d="M75.1402 6.92292H78.4712L81.3915 11.8282L81.8478 12.8183H81.939L82.3953 11.8282L85.3613 6.92292H88.4184L83.2623 15.2484V20.9638H80.3876V15.2034L75.1402 6.92292Z" fill="white"/>
<path d="M88.0535 13.9433C88.0535 11.5582 88.7379 9.75808 90.1524 8.58801C91.5213 7.37294 93.164 6.7879 95.0348 6.7879C96.9056 6.7879 98.5027 7.37294 99.8716 8.58801C101.24 9.80308 101.925 11.5582 101.925 13.9883C101.925 16.3735 101.24 18.1736 99.8716 19.3436C98.5027 20.5587 96.86 21.1438 95.0348 21.1438C93.164 21.1438 91.567 20.5587 90.1524 19.3436C88.7835 18.1286 88.0535 16.3285 88.0535 13.9433ZM91.065 13.9433C91.065 15.6084 91.3844 16.7785 91.9776 17.5435C92.6164 18.3086 93.2553 18.8036 94.031 18.9836C94.2135 19.0286 94.3504 19.0736 94.5329 19.0736C94.6698 19.0736 94.8523 19.1186 94.9892 19.1186C95.1717 19.1186 95.3086 19.1186 95.4911 19.0736C95.6736 19.0736 95.8105 19.0286 95.993 18.9836C96.7231 18.8036 97.4076 18.3086 98.0007 17.5435C98.5939 16.7785 98.9133 15.5634 98.9133 13.9883C98.9133 12.3682 98.5939 11.1982 98.0007 10.4331C97.4076 9.66807 96.7231 9.17304 95.993 8.99303C95.8105 8.94803 95.628 8.90303 95.4911 8.90303C95.3086 8.90303 95.1717 8.85802 94.9892 8.85802C94.8067 8.85802 94.6698 8.85803 94.5329 8.90303C94.396 8.90303 94.2135 8.94803 94.031 8.99303C93.3009 9.17304 92.6164 9.66807 91.9776 10.4331C91.3844 11.1082 91.065 12.3232 91.065 13.9433Z" fill="white"/>
<path d="M103.932 6.92292H111.872V9.26306H106.807V12.6833H111.644V15.0684H106.807V20.9638H103.932V6.92292Z" fill="white"/>
<path d="M114.017 6.92292H121.956V9.26306H116.891V12.6833H121.728V15.0684H116.891V20.9638H114.017V6.92292Z" fill="white"/>
<path d="M123.645 20.9638V6.92292H126.519V20.9638H123.645Z" fill="white"/>
<path d="M139.186 7.23693V9.66707C138.684 9.48706 138.182 9.35205 137.634 9.26205C137.087 9.17204 136.448 9.12704 135.809 9.12704C134.303 9.12704 133.163 9.57707 132.341 10.5221C131.52 11.4222 131.109 12.5922 131.109 13.9873C131.109 15.3374 131.474 16.4625 132.25 17.3625C133.026 18.2626 134.121 18.7576 135.535 18.7576C136.037 18.7576 136.539 18.7126 137.132 18.6676C137.726 18.5776 138.319 18.4426 138.958 18.1726L139.14 20.5577C139.049 20.6027 138.912 20.6477 138.775 20.6927C138.592 20.7377 138.41 20.7827 138.182 20.8277C137.817 20.9177 137.36 20.9627 136.813 21.0527C136.265 21.0977 135.718 21.1428 135.125 21.1428C135.033 21.1428 134.942 21.1428 134.896 21.1428C134.805 21.1428 134.714 21.1428 134.668 21.1428C133.026 21.0527 131.52 20.4227 130.151 19.3426C128.782 18.2176 128.098 16.4625 128.098 14.1223C128.098 11.8272 128.782 10.0271 130.105 8.76702C131.429 7.50695 133.254 6.87691 135.49 6.87691C136.083 6.87691 136.63 6.87691 137.087 6.92191C137.589 6.96691 138.045 7.05692 138.547 7.14692C138.638 7.19193 138.775 7.19193 138.866 7.23693C138.958 7.19193 139.049 7.23693 139.186 7.23693Z" fill="white"/>
<path d="M141.467 6.92297H150V9.1281H144.388V12.6383H149.452V14.7984H144.388V18.7587H150V20.9638H141.467V6.92297Z" fill="white"/>
<path fill-rule="evenodd" clip-rule="evenodd" d="M13.2065 27.6567L0.793481 21.8897C-0.263924 21.3863 -0.263924 20.6082 0.793481 20.1505L5.11505 18.1366L13.1605 21.8897C14.2179 22.3932 15.919 22.3932 16.9304 21.8897L24.9759 18.1366L29.2975 20.1505C30.3549 20.654 30.3549 21.432 29.2975 21.8897L16.8844 27.6567C15.919 28.1144 14.2179 28.1144 13.2065 27.6567Z" fill="white" fill-opacity="0.5"/>
<path fill-rule="evenodd" clip-rule="evenodd" d="M13.2065 20.5627L0.793481 14.7957C-0.263924 14.2922 -0.263924 13.5141 0.793481 13.0564L5.0231 11.0883L13.2065 14.8872C14.2639 15.3907 15.9649 15.3907 16.9764 14.8872L25.1598 11.0883L29.3894 13.0564C30.4468 13.5599 30.4468 14.338 29.3894 14.7957L16.9764 20.5627C15.919 21.0661 14.2179 21.0661 13.2065 20.5627Z" fill="white" fill-opacity="0.75"/>
<path fill-rule="evenodd" clip-rule="evenodd" d="M13.2061 13.6508L0.793054 7.88382C-0.264351 7.38035 -0.264351 6.60227 0.793054 6.14457L13.2061 0.377599C14.2635 -0.125866 15.9645 -0.125866 16.976 0.377599L29.389 6.14457C30.4464 6.64804 30.4464 7.42612 29.389 7.88382L16.976 13.6508C15.9186 14.1085 14.2175 14.1085 13.2061 13.6508Z" fill="white"/>
</svg>
